<mxfile host="app.diagrams.net" agent="Mozilla/5.0 (Windows NT 10.0; Win64; x64) AppleWebKit/537.36 (KHTML, like Gecko) Chrome/129.0.0.0 Safari/537.36" version="24.8.0">
  <diagram name="PÃ¡gina-1" id="50_o_SxUdohicsmvgsTn">
    <mxGraphModel dx="1178" dy="1782" grid="0" gridSize="10" guides="1" tooltips="1" connect="1" arrows="1" fold="1" page="0" pageScale="1" pageWidth="827" pageHeight="1169" math="0" shadow="0">
      <root>
        <mxCell id="0" />
        <mxCell id="1" parent="0" />
        <mxCell id="l1KRbrexJKs4OxdF_sgT-3" value="Motoristas" style="whiteSpace=wrap;html=1;" vertex="1" parent="1">
          <mxGeometry x="-93" y="-203" width="120" height="60" as="geometry" />
        </mxCell>
        <mxCell id="l1KRbrexJKs4OxdF_sgT-7" value="Engenheiros&amp;nbsp;" style="whiteSpace=wrap;html=1;" vertex="1" parent="1">
          <mxGeometry x="308" y="-201" width="120" height="60" as="geometry" />
        </mxCell>
        <mxCell id="l1KRbrexJKs4OxdF_sgT-9" value="codmo" style="text;html=1;align=center;verticalAlign=middle;resizable=0;points=[];autosize=1;strokeColor=none;fillColor=none;fontSize=16;fontStyle=4" vertex="1" parent="1">
          <mxGeometry x="-195" y="-256" width="66" height="31" as="geometry" />
        </mxCell>
        <mxCell id="l1KRbrexJKs4OxdF_sgT-12" value="" style="endArrow=none;html=1;rounded=0;fontSize=12;startSize=8;endSize=8;curved=1;entryX=0.986;entryY=0.968;entryDx=0;entryDy=0;entryPerimeter=0;exitX=0;exitY=0;exitDx=0;exitDy=0;" edge="1" parent="1" source="l1KRbrexJKs4OxdF_sgT-3" target="l1KRbrexJKs4OxdF_sgT-9">
          <mxGeometry width="50" height="50" relative="1" as="geometry">
            <mxPoint x="-92" y="-203" as="sourcePoint" />
            <mxPoint x="-56" y="-254" as="targetPoint" />
          </mxGeometry>
        </mxCell>
        <mxCell id="l1KRbrexJKs4OxdF_sgT-13" value="cpf" style="text;html=1;align=center;verticalAlign=middle;resizable=0;points=[];autosize=1;strokeColor=none;fillColor=none;fontSize=16;" vertex="1" parent="1">
          <mxGeometry x="-175" y="-291" width="39" height="31" as="geometry" />
        </mxCell>
        <mxCell id="l1KRbrexJKs4OxdF_sgT-15" value="telefone*&amp;nbsp;" style="text;html=1;align=center;verticalAlign=middle;resizable=0;points=[];autosize=1;strokeColor=none;fillColor=none;fontSize=16;" vertex="1" parent="1">
          <mxGeometry x="-189" y="-322" width="86" height="31" as="geometry" />
        </mxCell>
        <mxCell id="l1KRbrexJKs4OxdF_sgT-19" value="" style="endArrow=none;html=1;rounded=0;fontSize=12;startSize=8;endSize=8;curved=1;entryX=1.026;entryY=1.065;entryDx=0;entryDy=0;entryPerimeter=0;exitX=0.5;exitY=0;exitDx=0;exitDy=0;" edge="1" parent="1" source="l1KRbrexJKs4OxdF_sgT-3" target="l1KRbrexJKs4OxdF_sgT-13">
          <mxGeometry width="50" height="50" relative="1" as="geometry">
            <mxPoint x="-59" y="-204" as="sourcePoint" />
            <mxPoint x="-111" y="-264" as="targetPoint" />
          </mxGeometry>
        </mxCell>
        <mxCell id="l1KRbrexJKs4OxdF_sgT-20" value="" style="endArrow=none;html=1;rounded=0;fontSize=12;startSize=8;endSize=8;curved=1;entryX=0.628;entryY=1;entryDx=0;entryDy=0;entryPerimeter=0;exitX=0.5;exitY=0;exitDx=0;exitDy=0;" edge="1" parent="1" source="l1KRbrexJKs4OxdF_sgT-3" target="l1KRbrexJKs4OxdF_sgT-15">
          <mxGeometry width="50" height="50" relative="1" as="geometry">
            <mxPoint x="-50" y="-205" as="sourcePoint" />
            <mxPoint x="-67" y="-303" as="targetPoint" />
          </mxGeometry>
        </mxCell>
        <mxCell id="l1KRbrexJKs4OxdF_sgT-21" value="" style="endArrow=none;html=1;rounded=0;fontSize=12;startSize=8;endSize=8;curved=1;entryX=0.586;entryY=0.968;entryDx=0;entryDy=0;entryPerimeter=0;exitX=0.5;exitY=0;exitDx=0;exitDy=0;" edge="1" parent="1" source="l1KRbrexJKs4OxdF_sgT-3" target="l1KRbrexJKs4OxdF_sgT-22">
          <mxGeometry width="50" height="50" relative="1" as="geometry">
            <mxPoint x="-37" y="-230" as="sourcePoint" />
            <mxPoint x="-33" y="-292" as="targetPoint" />
          </mxGeometry>
        </mxCell>
        <mxCell id="l1KRbrexJKs4OxdF_sgT-22" value="nome" style="text;html=1;align=center;verticalAlign=middle;resizable=0;points=[];autosize=1;strokeColor=none;fillColor=none;fontSize=16;" vertex="1" parent="1">
          <mxGeometry x="-151" y="-353" width="58" height="31" as="geometry" />
        </mxCell>
        <mxCell id="l1KRbrexJKs4OxdF_sgT-40" value="CNH" style="text;html=1;align=center;verticalAlign=middle;resizable=0;points=[];autosize=1;strokeColor=none;fillColor=none;fontSize=16;" vertex="1" parent="1">
          <mxGeometry x="-148.5" y="-384" width="53" height="31" as="geometry" />
        </mxCell>
        <mxCell id="l1KRbrexJKs4OxdF_sgT-41" value="" style="endArrow=none;html=1;rounded=0;fontSize=12;startSize=8;endSize=8;curved=1;exitX=0.5;exitY=0;exitDx=0;exitDy=0;entryX=0.977;entryY=1.078;entryDx=0;entryDy=0;entryPerimeter=0;" edge="1" parent="1" source="l1KRbrexJKs4OxdF_sgT-3" target="l1KRbrexJKs4OxdF_sgT-40">
          <mxGeometry width="50" height="50" relative="1" as="geometry">
            <mxPoint x="10" y="-126" as="sourcePoint" />
            <mxPoint x="-21" y="-314" as="targetPoint" />
          </mxGeometry>
        </mxCell>
        <mxCell id="l1KRbrexJKs4OxdF_sgT-42" value="Coden" style="text;html=1;align=center;verticalAlign=middle;resizable=0;points=[];autosize=1;strokeColor=none;fillColor=none;fontSize=16;" vertex="1" parent="1">
          <mxGeometry x="243" y="-251" width="65" height="31" as="geometry" />
        </mxCell>
        <mxCell id="l1KRbrexJKs4OxdF_sgT-43" value="endereco" style="text;html=1;align=center;verticalAlign=middle;resizable=0;points=[];autosize=1;strokeColor=none;fillColor=none;fontSize=16;" vertex="1" parent="1">
          <mxGeometry x="-66" y="-347" width="85" height="31" as="geometry" />
        </mxCell>
        <mxCell id="l1KRbrexJKs4OxdF_sgT-44" value="" style="endArrow=none;html=1;rounded=0;fontSize=12;startSize=8;endSize=8;curved=1;exitX=0.5;exitY=0;exitDx=0;exitDy=0;entryX=0.436;entryY=0.899;entryDx=0;entryDy=0;entryPerimeter=0;" edge="1" parent="1" source="l1KRbrexJKs4OxdF_sgT-3" target="l1KRbrexJKs4OxdF_sgT-43">
          <mxGeometry width="50" height="50" relative="1" as="geometry">
            <mxPoint x="60" y="-338" as="sourcePoint" />
            <mxPoint y="-480" as="targetPoint" />
          </mxGeometry>
        </mxCell>
        <mxCell id="l1KRbrexJKs4OxdF_sgT-45" value="rua" style="text;html=1;align=center;verticalAlign=middle;resizable=0;points=[];autosize=1;strokeColor=none;fillColor=none;fontSize=16;" vertex="1" parent="1">
          <mxGeometry x="-134" y="-419" width="41" height="31" as="geometry" />
        </mxCell>
        <mxCell id="l1KRbrexJKs4OxdF_sgT-46" value="cep" style="text;html=1;align=center;verticalAlign=middle;resizable=0;points=[];autosize=1;strokeColor=none;fillColor=none;fontSize=16;" vertex="1" parent="1">
          <mxGeometry x="-127" y="-448" width="44" height="31" as="geometry" />
        </mxCell>
        <mxCell id="l1KRbrexJKs4OxdF_sgT-47" value="bairro" style="text;html=1;align=center;verticalAlign=middle;resizable=0;points=[];autosize=1;strokeColor=none;fillColor=none;fontSize=16;" vertex="1" parent="1">
          <mxGeometry x="-131" y="-481" width="59" height="31" as="geometry" />
        </mxCell>
        <mxCell id="l1KRbrexJKs4OxdF_sgT-49" value="" style="endArrow=none;html=1;rounded=0;fontSize=12;startSize=8;endSize=8;curved=1;exitX=0.084;exitY=-0.066;exitDx=0;exitDy=0;entryX=0.964;entryY=1.142;entryDx=0;entryDy=0;entryPerimeter=0;exitPerimeter=0;" edge="1" parent="1" source="l1KRbrexJKs4OxdF_sgT-43" target="l1KRbrexJKs4OxdF_sgT-45">
          <mxGeometry width="50" height="50" relative="1" as="geometry">
            <mxPoint x="-52" y="-457" as="sourcePoint" />
            <mxPoint x="-112" y="-599" as="targetPoint" />
          </mxGeometry>
        </mxCell>
        <mxCell id="l1KRbrexJKs4OxdF_sgT-50" value="" style="endArrow=none;html=1;rounded=0;fontSize=12;startSize=8;endSize=8;curved=1;exitX=0.417;exitY=0.009;exitDx=0;exitDy=0;entryX=0.951;entryY=0.972;entryDx=0;entryDy=0;entryPerimeter=0;exitPerimeter=0;" edge="1" parent="1" source="l1KRbrexJKs4OxdF_sgT-43" target="l1KRbrexJKs4OxdF_sgT-46">
          <mxGeometry width="50" height="50" relative="1" as="geometry">
            <mxPoint x="24" y="-387" as="sourcePoint" />
            <mxPoint x="-36" y="-529" as="targetPoint" />
          </mxGeometry>
        </mxCell>
        <mxCell id="l1KRbrexJKs4OxdF_sgT-51" value="" style="endArrow=none;html=1;rounded=0;fontSize=12;startSize=8;endSize=8;curved=1;exitX=0.666;exitY=0.085;exitDx=0;exitDy=0;entryX=0.978;entryY=1.068;entryDx=0;entryDy=0;entryPerimeter=0;exitPerimeter=0;" edge="1" parent="1" source="l1KRbrexJKs4OxdF_sgT-43" target="l1KRbrexJKs4OxdF_sgT-47">
          <mxGeometry width="50" height="50" relative="1" as="geometry">
            <mxPoint x="96" y="-406" as="sourcePoint" />
            <mxPoint x="36" y="-548" as="targetPoint" />
          </mxGeometry>
        </mxCell>
        <mxCell id="l1KRbrexJKs4OxdF_sgT-52" value="" style="endArrow=none;html=1;rounded=0;fontSize=12;startSize=8;endSize=8;curved=1;exitX=0;exitY=0;exitDx=0;exitDy=0;entryX=0.877;entryY=1.011;entryDx=0;entryDy=0;entryPerimeter=0;" edge="1" parent="1" source="l1KRbrexJKs4OxdF_sgT-7" target="l1KRbrexJKs4OxdF_sgT-42">
          <mxGeometry width="50" height="50" relative="1" as="geometry">
            <mxPoint x="294" y="-347" as="sourcePoint" />
            <mxPoint x="234" y="-489" as="targetPoint" />
          </mxGeometry>
        </mxCell>
        <mxCell id="l1KRbrexJKs4OxdF_sgT-53" value="cpf" style="text;html=1;align=center;verticalAlign=middle;resizable=0;points=[];autosize=1;strokeColor=none;fillColor=none;fontSize=16;" vertex="1" parent="1">
          <mxGeometry x="258" y="-288" width="39" height="31" as="geometry" />
        </mxCell>
        <mxCell id="l1KRbrexJKs4OxdF_sgT-54" value="telefone*&amp;nbsp;" style="text;html=1;align=center;verticalAlign=middle;resizable=0;points=[];autosize=1;strokeColor=none;fillColor=none;fontSize=16;" vertex="1" parent="1">
          <mxGeometry x="244" y="-319" width="86" height="31" as="geometry" />
        </mxCell>
        <mxCell id="l1KRbrexJKs4OxdF_sgT-55" value="nome" style="text;html=1;align=center;verticalAlign=middle;resizable=0;points=[];autosize=1;strokeColor=none;fillColor=none;fontSize=16;" vertex="1" parent="1">
          <mxGeometry x="282" y="-350" width="58" height="31" as="geometry" />
        </mxCell>
        <mxCell id="l1KRbrexJKs4OxdF_sgT-56" value="CREA" style="text;html=1;align=center;verticalAlign=middle;resizable=0;points=[];autosize=1;strokeColor=none;fillColor=none;fontSize=16;" vertex="1" parent="1">
          <mxGeometry x="302" y="-381" width="62" height="31" as="geometry" />
        </mxCell>
        <mxCell id="l1KRbrexJKs4OxdF_sgT-64" value="" style="endArrow=none;html=1;rounded=0;fontSize=12;startSize=8;endSize=8;curved=1;exitX=0.433;exitY=0.003;exitDx=0;exitDy=0;entryX=1.077;entryY=0.877;entryDx=0;entryDy=0;entryPerimeter=0;exitPerimeter=0;" edge="1" parent="1" source="l1KRbrexJKs4OxdF_sgT-7" target="l1KRbrexJKs4OxdF_sgT-53">
          <mxGeometry width="50" height="50" relative="1" as="geometry">
            <mxPoint x="420" y="-201" as="sourcePoint" />
            <mxPoint x="356" y="-305" as="targetPoint" />
          </mxGeometry>
        </mxCell>
        <mxCell id="l1KRbrexJKs4OxdF_sgT-65" value="" style="endArrow=none;html=1;rounded=0;fontSize=12;startSize=8;endSize=8;curved=1;exitX=0.5;exitY=0;exitDx=0;exitDy=0;entryX=0.788;entryY=1.08;entryDx=0;entryDy=0;entryPerimeter=0;" edge="1" parent="1" source="l1KRbrexJKs4OxdF_sgT-7" target="l1KRbrexJKs4OxdF_sgT-54">
          <mxGeometry width="50" height="50" relative="1" as="geometry">
            <mxPoint x="402" y="-275" as="sourcePoint" />
            <mxPoint x="338" y="-379" as="targetPoint" />
          </mxGeometry>
        </mxCell>
        <mxCell id="l1KRbrexJKs4OxdF_sgT-66" value="" style="endArrow=none;html=1;rounded=0;fontSize=12;startSize=8;endSize=8;curved=1;exitX=0.5;exitY=0;exitDx=0;exitDy=0;entryX=1.02;entryY=1.017;entryDx=0;entryDy=0;entryPerimeter=0;" edge="1" parent="1" source="l1KRbrexJKs4OxdF_sgT-7" target="l1KRbrexJKs4OxdF_sgT-55">
          <mxGeometry width="50" height="50" relative="1" as="geometry">
            <mxPoint x="381" y="-290" as="sourcePoint" />
            <mxPoint x="346" y="-300" as="targetPoint" />
          </mxGeometry>
        </mxCell>
        <mxCell id="l1KRbrexJKs4OxdF_sgT-67" value="" style="endArrow=none;html=1;rounded=0;fontSize=12;startSize=8;endSize=8;curved=1;exitX=0.5;exitY=0;exitDx=0;exitDy=0;entryX=0.921;entryY=1.091;entryDx=0;entryDy=0;entryPerimeter=0;" edge="1" parent="1" source="l1KRbrexJKs4OxdF_sgT-7" target="l1KRbrexJKs4OxdF_sgT-56">
          <mxGeometry width="50" height="50" relative="1" as="geometry">
            <mxPoint x="411" y="-273" as="sourcePoint" />
            <mxPoint x="347" y="-377" as="targetPoint" />
          </mxGeometry>
        </mxCell>
        <mxCell id="l1KRbrexJKs4OxdF_sgT-68" value="pode" style="rhombus;whiteSpace=wrap;html=1;" vertex="1" parent="1">
          <mxGeometry x="-110" y="-102" width="155" height="94" as="geometry" />
        </mxCell>
        <mxCell id="l1KRbrexJKs4OxdF_sgT-69" value="Dirigir" style="whiteSpace=wrap;html=1;" vertex="1" parent="1">
          <mxGeometry x="-83" y="49" width="120" height="60" as="geometry" />
        </mxCell>
        <mxCell id="l1KRbrexJKs4OxdF_sgT-70" value="" style="endArrow=none;html=1;rounded=0;fontSize=12;startSize=8;endSize=8;curved=1;exitX=0.5;exitY=0;exitDx=0;exitDy=0;entryX=0.5;entryY=1;entryDx=0;entryDy=0;" edge="1" parent="1" source="l1KRbrexJKs4OxdF_sgT-68" target="l1KRbrexJKs4OxdF_sgT-3">
          <mxGeometry width="50" height="50" relative="1" as="geometry">
            <mxPoint x="206" y="16" as="sourcePoint" />
            <mxPoint x="266" y="16" as="targetPoint" />
          </mxGeometry>
        </mxCell>
        <mxCell id="l1KRbrexJKs4OxdF_sgT-71" value="" style="endArrow=none;html=1;rounded=0;fontSize=12;startSize=8;endSize=8;curved=1;exitX=0.437;exitY=0.029;exitDx=0;exitDy=0;entryX=0.5;entryY=1;entryDx=0;entryDy=0;exitPerimeter=0;" edge="1" parent="1" source="l1KRbrexJKs4OxdF_sgT-69" target="l1KRbrexJKs4OxdF_sgT-68">
          <mxGeometry width="50" height="50" relative="1" as="geometry">
            <mxPoint x="188" y="-18" as="sourcePoint" />
            <mxPoint x="248" y="-18" as="targetPoint" />
          </mxGeometry>
        </mxCell>
        <mxCell id="l1KRbrexJKs4OxdF_sgT-72" value="codmo" style="text;html=1;align=center;verticalAlign=middle;resizable=0;points=[];autosize=1;strokeColor=none;fillColor=none;fontSize=16;fontStyle=4" vertex="1" parent="1">
          <mxGeometry x="-134" y="189" width="66" height="31" as="geometry" />
        </mxCell>
        <mxCell id="l1KRbrexJKs4OxdF_sgT-73" value="" style="endArrow=none;html=1;rounded=0;fontSize=12;startSize=8;endSize=8;curved=1;exitX=0.586;exitY=-0.013;exitDx=0;exitDy=0;exitPerimeter=0;entryX=0;entryY=1;entryDx=0;entryDy=0;" edge="1" parent="1" source="l1KRbrexJKs4OxdF_sgT-72" target="l1KRbrexJKs4OxdF_sgT-69">
          <mxGeometry width="50" height="50" relative="1" as="geometry">
            <mxPoint x="-51" y="269" as="sourcePoint" />
            <mxPoint x="-71" y="131" as="targetPoint" />
          </mxGeometry>
        </mxCell>
        <mxCell id="l1KRbrexJKs4OxdF_sgT-74" value="modelo_carro" style="text;html=1;align=center;verticalAlign=middle;resizable=0;points=[];autosize=1;strokeColor=none;fillColor=none;fontSize=16;" vertex="1" parent="1">
          <mxGeometry x="-110" y="220" width="116" height="31" as="geometry" />
        </mxCell>
        <mxCell id="l1KRbrexJKs4OxdF_sgT-75" value="" style="endArrow=none;html=1;rounded=0;fontSize=12;startSize=8;endSize=8;curved=1;exitX=0.361;exitY=-0.065;exitDx=0;exitDy=0;entryX=0.25;entryY=1;entryDx=0;entryDy=0;exitPerimeter=0;" edge="1" parent="1" source="l1KRbrexJKs4OxdF_sgT-74" target="l1KRbrexJKs4OxdF_sgT-69">
          <mxGeometry width="50" height="50" relative="1" as="geometry">
            <mxPoint x="255" y="153" as="sourcePoint" />
            <mxPoint x="315" y="153" as="targetPoint" />
          </mxGeometry>
        </mxCell>
        <mxCell id="l1KRbrexJKs4OxdF_sgT-77" value="placa" style="text;html=1;align=center;verticalAlign=middle;resizable=0;points=[];autosize=1;strokeColor=none;fillColor=none;fontSize=16;fontStyle=4" vertex="1" parent="1">
          <mxGeometry x="-49" y="192" width="56" height="31" as="geometry" />
        </mxCell>
        <mxCell id="l1KRbrexJKs4OxdF_sgT-78" value="" style="endArrow=none;html=1;rounded=0;fontSize=12;startSize=8;endSize=8;curved=1;entryX=0.5;entryY=1;entryDx=0;entryDy=0;" edge="1" parent="1" source="l1KRbrexJKs4OxdF_sgT-77" target="l1KRbrexJKs4OxdF_sgT-69">
          <mxGeometry width="50" height="50" relative="1" as="geometry">
            <mxPoint x="53" y="144" as="sourcePoint" />
            <mxPoint x="113" y="144" as="targetPoint" />
          </mxGeometry>
        </mxCell>
        <mxCell id="l1KRbrexJKs4OxdF_sgT-79" value="CNH" style="text;html=1;align=center;verticalAlign=middle;resizable=0;points=[];autosize=1;strokeColor=none;fillColor=none;fontSize=16;fontStyle=4" vertex="1" parent="1">
          <mxGeometry x="6" y="196" width="53" height="31" as="geometry" />
        </mxCell>
        <mxCell id="l1KRbrexJKs4OxdF_sgT-80" value="" style="endArrow=none;html=1;rounded=0;fontSize=12;startSize=8;endSize=8;curved=1;exitX=0.75;exitY=1;exitDx=0;exitDy=0;entryX=0.479;entryY=0.102;entryDx=0;entryDy=0;entryPerimeter=0;" edge="1" parent="1" source="l1KRbrexJKs4OxdF_sgT-69" target="l1KRbrexJKs4OxdF_sgT-79">
          <mxGeometry width="50" height="50" relative="1" as="geometry">
            <mxPoint x="17" y="137" as="sourcePoint" />
            <mxPoint x="77" y="137" as="targetPoint" />
          </mxGeometry>
        </mxCell>
        <mxCell id="l1KRbrexJKs4OxdF_sgT-81" value="Projeto" style="whiteSpace=wrap;html=1;" vertex="1" parent="1">
          <mxGeometry x="271" y="36" width="120" height="60" as="geometry" />
        </mxCell>
      </root>
    </mxGraphModel>
  </diagram>
</mxfile>
